<svg viewBox="0 0 24 24" fill="none" xmlns="http://www.w3.org/2000/svg">
<path d="M9.03511 13.25C8.81238 13.25 8.70084 13.5192 8.85833 13.6767L13.0152 17.8336C13.3081 18.1265 13.3081 18.6014 13.0152 18.8943L12.3083 19.6012C12.0154 19.8941 11.5406 19.8941 11.2477 19.6012L4.17678 12.5303C3.88388 12.2374 3.88388 11.7625 4.17678 11.4696L11.2477 4.39873C11.5406 4.10584 12.0154 4.10584 12.3083 4.39873L13.0152 5.10562C13.3081 5.39852 13.3081 5.87339 13.0152 6.16628L8.85833 10.3232C8.70084 10.4807 8.81238 10.75 9.03511 10.75L19.5 10.75C19.9142 10.75 20.25 11.0857 20.25 11.5L20.25 12.5C20.25 12.9142 19.9142 13.25 19.5 13.25L9.03511 13.25Z" fill="currentColor" stroke="currentColor" stroke-width="0.5"/>
</svg>
