<svg width="24" height="24" viewBox="0 0 24 24" fill="none" xmlns="http://www.w3.org/2000/svg">
<g clip-path="url(#clip0_301_16474)">
<path d="M11.6464 9.64676C11.8417 9.84202 12.1583 9.84202 12.3536 9.64676L18.6468 3.35355C18.842 3.15829 19.1586 3.15829 19.3539 3.35355L20.6464 4.64613C20.8417 4.84139 20.8417 5.15798 20.6464 5.35324L14.3532 11.6464C14.158 11.8417 14.158 12.1583 14.3532 12.3536L20.6464 18.6468C20.8417 18.842 20.8417 19.1586 20.6464 19.3539L19.3539 20.6464C19.1586 20.8417 18.842 20.8417 18.6468 20.6464L12.3536 14.3532C12.1583 14.158 11.8417 14.158 11.6464 14.3532L5.35324 20.6464C5.15798 20.8417 4.84139 20.8417 4.64613 20.6464L3.35355 19.3539C3.15829 19.1586 3.15829 18.842 3.35355 18.6468L9.64676 12.3536C9.84202 12.1583 9.84202 11.8417 9.64676 11.6464L3.35355 5.35324C3.15829 5.15798 3.15829 4.84139 3.35355 4.64613L4.64613 3.35355C4.84139 3.15829 5.15798 3.15829 5.35324 3.35355L11.6464 9.64676Z" />
</g>
<defs>
<clipPath id="clip0_301_16474">
<rect width="24" height="24" fill="white"/>
</clipPath>
</defs>
</svg>
