<svg  viewBox="0 0 24 24" fill="none" xmlns="http://www.w3.org/2000/svg">
<path d="M14.9649 13.25C15.1876 13.25 15.2992 13.5192 15.1417 13.6767L10.9848 17.8336C10.6919 18.1265 10.6919 18.6014 10.9848 18.8943L11.6917 19.6012C11.9846 19.8941 12.4594 19.8941 12.7523 19.6012L19.8232 12.5303C20.1161 12.2374 20.1161 11.7625 19.8232 11.4696L12.7523 4.39873C12.4594 4.10584 11.9846 4.10584 11.6917 4.39873L10.9848 5.10562C10.6919 5.39852 10.6919 5.87339 10.9848 6.16628L15.1417 10.3232C15.2992 10.4807 15.1876 10.75 14.9649 10.75L4.5 10.75C4.08579 10.75 3.75 11.0857 3.75 11.5L3.75 12.5C3.75 12.9142 4.08579 13.25 4.5 13.25L14.9649 13.25Z" stroke-width="0.5"/>
</svg>
