<svg width="188" height="32" viewBox="0 0 188 32" fill="none" xmlns="http://www.w3.org/2000/svg">
<g clip-path="url(#clip0_124_355)">
<path d="M23.4498 23.4543C23.4498 28.2719 19.5118 32.2497 14.6544 32.2497C9.79693 32.2497 5.85893 28.2719 5.85893 23.4543V17.5907H0V11.7271H23.4498V23.4543ZM11.7225 23.4543C11.7225 25.0868 13.0219 26.3861 14.6544 26.3861C16.2868 26.3861 17.5862 25.0868 17.5862 23.4543V17.5907H11.7225V23.4543Z" fill="#8664FF"/>
<path d="M11.7271 5.86361V0H5.86345V5.86361H11.7271Z" fill="#F5325C"/>
<path d="M23.4546 5.86361V0H17.591V5.86361H23.4546Z" fill="#39CB4A"/>
<path d="M5.86378 17.5907V11.7271L0 11.7271V17.5907L5.86378 17.5907Z" fill="#F5325C"/>
<path d="M11.7271 17.5907V11.7271H5.86378V17.5907H11.7271Z" fill="#FF8500"/>
<path d="M17.5906 17.5907V11.7271L11.7271 11.7271V17.5907L17.5906 17.5907Z" fill="#FFCA00"/>
<path d="M23.4487 17.592V11.7283H17.5851V17.592H23.4487Z" fill="#12A4ED"/>
<path d="M23.4487 23.4555V17.592H17.5851V23.4555H23.4487Z" fill="#0067FF"/>
<path d="M14.6592 32.25C9.80178 32.25 5.86378 28.2698 5.86378 23.4546V17.5907H11.7271L11.7274 23.4546C11.7274 25.087 13.0268 26.3864 14.6592 26.3864V32.25Z" fill="#39CB4A"/>
<path fill-rule="evenodd" clip-rule="evenodd" d="M150.424 0.0314857C141.573 0.0314857 134.384 7.26996 134.383 16.1207V16.1228C134.383 24.9724 141.573 32.0294 150.424 32.0315C159.276 32.0315 166.465 24.9745 166.465 16.1228C166.465 7.2711 159.276 0.0314857 150.424 0.0314857ZM150.424 25.7385C145.032 25.7385 140.675 21.5137 140.674 16.1217V16.1207C140.675 10.7292 145.033 6.27195 150.424 6.27195C155.817 6.27195 160.174 10.7303 160.174 16.1228C160.174 21.5131 155.815 25.7406 150.424 25.7406V25.7385Z" fill="currentColor"/>
<path d="M183.208 0.0314857H189.505L189.504 32.0315H183.207L176.91 16.8867V32.0315H170.613V0.0377113H176.91L183.207 15.3125L183.208 0.0314857Z" fill="currentColor"/>
<path d="M98.0371 7.95329L94.8885 0.0818626H88.5914L94.8885 15.8247L88.5914 32.0819H94.8885L98.0371 24.2104L101.186 32.0819H107.483L101.186 15.8247L107.483 0.0818626H101.186L98.0371 7.95329Z" fill="currentColor"/>
<path d="M70.7801 25.7846H64.483V32.0818L83.3744 32.0819V25.7847H77.0773V6.379H83.3744V0.0818626H64.483V6.379H70.7801L70.7801 25.7846Z" fill="currentColor"/>
<path d="M131.592 0.0314857V6.32863L125.295 6.32863V25.7847H131.592V32.0819H112.701V25.7847H118.998V6.32863H112.701V0.0314857H131.592Z" fill="currentColor"/>
<path fill-rule="evenodd" clip-rule="evenodd" d="M52.0494 0V0.00629714C57.2214 0.00629714 61.4951 4.23378 61.4951 9.45201C61.4951 14.6702 57.2708 19.2713 52.0988 19.2713H45.8016V32.0819H39.5045L39.4551 0.00629714L52.0494 0ZM45.8016 12.9742H52.0988C53.8536 12.9742 55.198 11.2047 55.198 9.45201C55.198 7.69721 53.8042 6.30344 52.0494 6.30344H45.7522L45.8016 12.9742Z" fill="currentColor"/>
</g>
<defs>
<clipPath id="clip0_124_355">
<rect width="188" height="32" fill="white"/>
</clipPath>
</defs>
</svg>
